HIERARCHY
ROOT pelvis
{
  OFFSET 0 100 0
  CHANNELS 6 Xposition Yposition Zposition Zrotation Xrotation Yrotation
  JOINT pelvis_right_femur
  {
    OFFSET -10.78128 -3.44521 -0.5502486
    CHANNELS 3 Zrotation Xrotation Yrotation
    JOINT right_femur_tibia
    {
      OFFSET -0.8047443 -44.0398 -0.1307829
      CHANNELS 3 Zrotation Xrotation Yrotation
      JOINT right_tibia_foot
      {
        OFFSET 3.006224 -47.83518 -5
        CHANNELS 3 Zrotation Xrotation Yrotation
        End Site
        {
          OFFSET 0 -5 15
        }
      }
    }
  }
  JOINT pelvis_left_femur
  {
    OFFSET 10.78128 -3.44521 -0.5502486
    CHANNELS 3 Zrotation Xrotation Yrotation
    JOINT left_femur_tibia
    {
      OFFSET 0.8047443 -44.0398 -0.1307829
      CHANNELS 3 Zrotation Xrotation Yrotation
      JOINT left_tibia_foot
      {
        OFFSET -4.370144 -48.10324 -4.275266
        CHANNELS 3 Zrotation Xrotation Yrotation
        End Site
        {
          OFFSET 0 -5 15
        }
      }
    }
  }
  JOINT pelvis_spine1
  {
    OFFSET 0 6.468898 -3.129235
    CHANNELS 3 Zrotation Xrotation Yrotation
    JOINT spine1
    {
      OFFSET 0 23.15396 4.99043
      CHANNELS 3 Zrotation Xrotation Yrotation
      JOINT spine2
      {
        OFFSET 0 20.79997 -5.064912
        CHANNELS 3 Zrotation Xrotation Yrotation
        JOINT neck
        {
          OFFSET 0 14.38658 9.616178
          CHANNELS 3 Zrotation Xrotation Yrotation
          End Site
          {
            OFFSET 0 20 0
          }
        }
      }
      JOINT right_manubrium
      {
        OFFSET -5.722621 16.35077 3.967754
        CHANNELS 3 Zrotation Xrotation Yrotation
        JOINT right_clavicle
        {
          OFFSET -13.16364 1.694482 -4.693211
          CHANNELS 3 Zrotation Xrotation Yrotation
          JOINT right_humerus
          {
            OFFSET -28.5034 -0.3100689 -2.792744
            CHANNELS 3 Zrotation Xrotation Yrotation
            JOINT right_radius
            {
              OFFSET -25.15693 0.02248979 -1.271978
              CHANNELS 3 Zrotation Xrotation Yrotation
              End Site
              {
                OFFSET -15 0 0
              }
            }
          }
        }
      }
      JOINT left_manubrium
      {
        OFFSET 5.722621 16.35077 3.967754
        CHANNELS 3 Zrotation Xrotation Yrotation
        JOINT left_clavicle
        {
          OFFSET 13.16364 1.694482 -4.693211
          CHANNELS 3 Zrotation Xrotation Yrotation
          JOINT left_humerus
          {
            OFFSET 29.39168 -1.063119 -2.237045
            CHANNELS 3 Zrotation Xrotation Yrotation
            JOINT left_radius
            {
              OFFSET 24.59957 -0.9528479 0.9047498
              CHANNELS 3 Zrotation Xrotation Yrotation
              End Site
              {
                OFFSET 15 -0 -0
              }
            }
          }
        }
      }
    }
  }
}
MOTION
Frames: 19
Frame Time: 0.0416666666667
0 103.5113 0 2.178595 -1.213438 0.2851442 1.255836 -10.0615 8.753411 -0 34.75521 -0 -5.28355 -17.98666 -2.414337 -8.03301 10.10599 -23.51172 -0 5.123941 -0 7.692752 -16.14157 26.5931 -4.333946 -5.057462 4.936666 2.009196 9.214875 -7.753828 0.8273537 22.8207 7.186104 3.257421 -23.09335 8.808033 6.376454 -19.77031 11.57817 86.30944 35.94551 -19.78077 -0 0 16.26652 -7.573879 8.23815 4.621579 5.479025 -19.47947 -1.702414 -94.79065 29.75045 22.95868 0 0 -15.95635 3.495937 17.88239 9.563305
0.3263036 103.5195 1.346989 2.020287 -1.111376 0.4743076 1.542316 -11.04955 8.649941 -0 34.58375 -0 -5.358799 -17.6032 -2.464724 -7.883938 10.26265 -23.39103 -0 5.15369 -0 7.568399 -16.40674 26.43567 -4.267791 -4.865737 4.860012 2.097884 9.188721 -7.791381 0.8304386 22.71959 7.232324 3.297422 -23.21878 8.835825 6.370793 -19.72844 11.58693 86.28788 35.92329 -19.81906 -0 0 16.16714 -7.604127 8.262537 4.644484 5.530244 -19.50317 -1.734355 -94.70883 29.71201 22.83769 0 0 -16.22119 3.548706 17.75272 9.530622
0.6619488 103.4719 2.79104 1.805839 -0.9111275 0.5713604 1.902404 -12.55232 8.384486 -0 33.16701 -0 -5.448213 -16.88404 -2.271488 -7.69053 10.46132 -23.15984 -0 5.241488 -0 7.351799 -16.83706 26.15236 -4.208927 -4.575885 4.803785 2.277321 9.150952 -7.82101 0.8403845 22.52586 7.301017 3.369736 -23.41914 8.867828 6.356828 -19.63563 11.60999 86.25362 35.89246 -19.91034 -0 0 15.95747 -7.643567 8.302961 4.661528 5.667161 -19.52101 -1.804481 -94.57525 29.64654 22.55139 0 0 -16.76608 3.643875 17.5648 9.43843
1.024135 103.3065 4.39646 1.587909 -0.5746362 0.5744893 2.229292 -14.42792 7.930028 -0 29.96589 -0 -5.52044 -15.70621 -1.735889 -7.536174 10.6823 -22.78714 -0 5.454785 -0 7.038374 -17.44671 25.71343 -4.19341 -4.208092 4.812574 2.519012 9.10266 -7.798956 0.8936376 22.22172 7.36493 3.485187 -23.69409 8.905467 6.305812 -19.45836 11.64535 86.2344 35.85063 -20.0781 -0 0 15.62094 -7.691635 8.361679 4.670798 5.909361 -19.58234 -1.890204 -94.341 29.56387 22.0251 0 0 -17.64034 3.775431 17.32818 9.260853
1.429295 102.9663 6.227499 1.422812 -0.1021926 0.5289005 2.431534 -16.4412 7.306283 -0 24.98796 -0 -5.560102 -14.07797 -0.8729027 -7.479807 10.92837 -22.25759 -0 5.859953 -0 6.61665 -18.19906 25.08862 -4.231465 -3.82554 4.890027 2.767847 9.046184 -7.710359 0.9975688 21.85498 7.411462 3.637789 -24.01125 8.951188 6.193335 -19.19755 11.66298 86.26623 35.79733 -20.32308 -0 0 15.1711 -7.745974 8.441188 4.678114 6.24588 -19.71352 -1.958197 -93.98337 29.47059 21.27235 0 0 -18.77335 3.920879 17.05066 9.016555
1.883555 102.4297 8.338369 1.348939 0.475147 0.5151992 2.471202 -18.30934 6.561024 -0 18.70611 -0 -5.571665 -12.16323 0.217131 -7.534109 11.22029 -21.5647 -0 6.532433 -0 6.054843 -19.00457 24.23874 -4.299 -3.514201 4.994915 2.964907 8.984574 -7.581421 1.12015 21.52027 7.448595 3.803941 -24.31334 9.000265 6.012012 -18.87784 11.61709 86.39124 35.735 -20.63453 -0 0 14.63067 -7.800115 8.54576 4.691311 6.637321 -19.9082 -1.984471 -93.51313 29.36756 20.38233 0 0 -19.99642 4.048489 16.73734 8.764681
2.372289 101.7311 10.79445 1.334721 1.12585 0.6371811 2.434333 -19.7842 5.75615 -0 11.99306 -0 -5.592846 -10.30442 1.371421 -7.642951 11.57033 -20.70642 -0 7.589643 -0 5.290967 -19.72176 23.1199 -4.325806 -3.30698 5.049189 3.085826 8.920007 -7.485397 1.201424 21.27207 7.494094 3.950075 -24.55365 9.024548 5.794445 -18.4977 11.49909 86.65591 35.66725 -21.02442 -0 0 13.99047 -7.843264 8.683034 4.709224 7.006438 -20.15329 -1.99306 -92.96827 29.25422 19.46142 0 0 -21.10882 4.133314 16.39345 8.575758
2.872481 100.9561 13.68121 1.305274 1.809078 1.005078 2.429058 -20.61961 4.996716 -0 5.875532 -0 -5.6856 -8.794584 2.425948 -7.700119 11.94879 -19.69654 -0 9.204935 -0 4.24512 -20.14084 21.69313 -4.227215 -3.222718 4.997406 3.137488 8.840959 -7.482253 1.215988 21.1106 7.544566 4.055614 -24.7205 8.998346 5.585811 -18.05674 11.32952 87.0617 35.59575 -21.49432 -0 0 13.24984 -7.878695 8.85745 4.734301 7.248628 -20.4008 -2.020969 -92.41892 29.12598 18.63818 0 0 -21.92052 4.150844 16.01932 8.501802
3.368153 100.2343 17.09437 1.169195 2.478708 1.699639 2.537456 -20.54563 4.412349 -0 1.393326 -0 -5.928362 -7.810926 3.227714 -7.572988 12.26817 -18.56939 -0 11.62589 -0 2.832754 -19.95517 19.93154 -3.915822 -3.284663 4.81996 3.144091 8.726706 -7.601887 1.170156 20.99976 7.578914 4.110996 -24.82557 8.903531 5.428711 -17.56241 11.1466 87.57077 35.52139 -22.02886 -0 0 12.42329 -7.923344 9.070544 4.774156 7.250926 -20.56832 -2.104726 -91.96303 28.97597 18.06074 0 0 -22.2629 4.075539 15.61087 8.576302
3.859857 99.72555 21.07564 0.8855752 3.109947 2.67176 2.741808 -19.36158 4.053034 0 -0.9697952 0 -6.367442 -7.309927 3.685421 -7.195878 12.34684 -17.39067 -0 15.14277 -0 1.026235 -18.77136 17.86348 -3.341509 -3.505376 4.553654 3.121001 8.577795 -7.816637 1.058794 20.90864 7.589226 4.102412 -24.86384 8.729271 5.334638 -17.02429 10.99303 88.14586 35.44716 -22.59704 -0 0 11.53235 -7.992973 9.323458 4.83361 6.978285 -20.58157 -2.262402 -91.69212 28.79899 17.83095 0 0 -22.07766 3.897964 15.16924 8.808023
4.361489 99.56565 25.59768 0.4887614 3.567623 3.729203 3.019755 -17.0607 3.924671 0 -1.509297 0 -6.96331 -7.266465 3.838771 -6.659632 11.94245 -16.23638 -0 20.07026 -0 -1.040407 -16.32751 15.64644 -2.536759 -3.829231 4.317925 3.065048 8.451079 -8.020739 0.8820023 20.8541 7.570675 4.024335 -24.79306 8.471826 5.294652 -16.46508 10.91883 88.73353 35.37731 -23.12252 -0 0 10.64023 -8.107044 9.613817 4.925944 6.471266 -20.4234 -2.478969 -91.64039 28.5905 17.95896 0 0 -21.4339 3.627642 14.70233 9.171543
4.88759 99.82297 30.55983 0.1064145 3.618848 4.573633 3.333892 -13.75615 3.989064 0 -1.116606 0 -7.596547 -7.749724 3.836965 -6.174315 10.7294 -15.16757 -0 26.6999 -0 -3.084316 -12.61781 13.55945 -1.63145 -4.125685 4.3027 2.957349 8.446792 -8.047751 0.6550846 20.89893 7.513188 3.885923 -24.54737 8.131575 5.297676 -15.93563 10.98427 89.24427 35.32131 -23.46826 -0 0 9.855429 -8.297983 9.934639 5.077004 5.821209 -20.13663 -2.713206 -91.77971 28.34512 18.37444 0 0 -20.49918 3.290082 14.22424 9.61313
5.444545 100.4855 35.78943 -0.04601588 3.131885 4.99027 3.504856 -9.451905 4.09348 0 -0.6811859 0 -8.124088 -8.862295 3.835571 -5.864613 8.331 -14.15758 -0 34.8942 -0 -4.734317 -8.228336 11.95955 -0.8827379 -4.244661 4.674845 2.776062 8.620387 -7.776549 0.4225869 21.10603 7.393175 3.721904 -24.11151 7.711063 5.36699 -15.54779 11.23527 89.52664 35.30032 -23.44134 -0 0 9.294776 -8.624812 10.27124 5.320431 5.124815 -19.81313 -2.924576 -92.01316 28.06337 18.95685 0 0 -19.47199 2.926833 13.75334 10.06971
6.028194 101.472 41.07833 0.1857184 2.132214 4.992834 3.344558 -4.200536 4.120477 0 -0.76232 0 -8.43623 -10.51619 3.938664 -5.708001 4.498698 -13.16987 -0 43.82931 -0 -5.783134 -4.04828 11.05734 -0.5094006 -4.118903 5.455782 2.513248 8.954315 -7.220905 0.2337709 21.50186 7.186886 3.568739 -23.48391 7.216139 5.496371 -15.4079 11.62675 89.43538 35.32395 -22.90001 -0 0 9.0637 -9.158086 10.59994 5.694825 4.474898 -19.53044 -3.071576 -92.24428 27.74406 19.59665 0 0 -18.52954 2.580985 13.30213 10.48129
6.638121 102.644 46.23632 0.8581059 0.7785439 4.849638 2.717725 1.815728 4.038627 0 -1.601601 0 -8.456024 -12.41988 4.202515 -5.583787 -0.8260403 -12.194 -0 52.01932 -0 -6.170555 -1.029757 10.91549 -0.639468 -3.780539 6.530037 2.172748 9.370378 -6.506576 0.1295246 22.07175 6.880238 3.453698 -22.66623 6.661229 5.630643 -15.59732 12.0315 88.85359 35.37723 -21.7634 -0 0 9.265595 -9.974411 10.88757 6.242788 3.969961 -19.33304 -3.10815 -92.39898 27.38289 20.21269 0 0 -17.81609 2.291019 12.87574 10.79603
7.269793 103.8692 51.16136 1.864852 -0.6676664 4.763535 1.688734 8.161333 3.920419 0 -3.132806 0 -8.155106 -14.26968 4.618703 -5.431799 -7.276725 -11.30265 -0 57.82531 -0 -5.965069 0.4853495 11.39766 -1.206755 -3.33362 7.719929 1.75149 9.772896 -5.73857 0.1046986 22.74766 6.505418 3.37314 -21.70283 6.092227 5.669592 -16.12527 12.34764 87.77645 35.4124 -20.03288 -0 0 9.981124 -11.11262 11.10161 6.984871 3.703956 -19.20504 -3.00444 -92.45838 26.98053 20.78627 0 0 -17.37052 2.067621 12.4729 11.00475
7.926415 104.9831 55.85836 3.002357 -1.957963 4.799022 0.4457669 14.39058 3.837261 0 -5.108861 0 -7.561002 -15.92417 5.145344 -5.156465 -14.23186 -10.44658 -0 60.12626 -0 -5.357146 0.7680244 12.40205 -2.01811 -2.913942 8.839197 1.262298 10.08563 -5.002542 0.1231736 23.4278 6.119829 3.304577 -20.66911 5.563156 5.528376 -16.93725 12.52264 86.28181 35.36828 -17.78697 -0 0 11.23627 -12.55691 11.21925 7.916084 3.702669 -19.09116 -2.781768 -92.45411 26.55186 21.34597 0 0 -17.12497 1.884622 12.09076 11.13991
8.636802 105.759 60.42759 3.991134 -2.896886 4.921303 -0.7251018 20.1166 3.79942 0 -7.157454 0 -6.746997 -17.41241 5.719739 -4.563038 -20.91618 -9.397445 -0 58.36911 -0 -4.649106 0.5066235 13.89006 -2.794853 -2.657932 9.709736 0.7428777 10.25882 -4.371732 0.1324421 23.9857 5.793176 3.217036 -19.66098 5.126986 5.161249 -17.93374 12.54816 84.50285 35.18723 -15.16856 -0 0 12.99701 -14.24193 11.22986 9.007565 3.913699 -18.91575 -2.50915 -92.45221 26.12469 21.94642 0 0 -16.92849 1.687773 11.72623 11.26677
9.448346 106.0123 64.97009 4.575263 -3.439815 5.04465 -1.531552 25.10786 3.749151 0 -8.879305 0 -5.797727 -18.83916 6.282663 -3.501511 -26.71055 -7.946948 -0 52.78132 -0 -4.056555 0.2578073 15.74878 -3.28716 -2.605671 10.2698 0.2562361 10.29208 -3.865352 0.1068424 24.31718 5.56728 3.100237 -18.75864 4.811722 4.623311 -19.01865 12.46915 82.59122 34.84577 -12.357 -0 0 15.12699 -16.06084 11.14089 10.19549 4.2199 -18.64217 -2.250482 -92.50136 25.723 22.61056 0 0 -16.63175 1.440259 11.37666 11.45224
